inDegrees=no
num_controls=7
num_derivatives=13
num_iterations=168
num_multipliers=7
num_parameters=0
num_slacks=7
num_states=26
objective=0.529016
objective_accelerations=0.039654
objective_balance=0.002647
objective_effort=0.021754
objective_height=0.352041
objective_ligament=0.112920
solver_duration=2400.326473
status=Solve_Succeeded
success=true
DataType=double
version=3
OpenSimVersion=4.5
endheader
time	/jointset/ground_pelvis/pelvis_tilt/value	/jointset/ground_pelvis/pelvis_tx/value	/jointset/ground_pelvis/pelvis_ty/value	/jointset/hip_l/hip_flexion_l/value	/jointset/hip_l/hip_adduction_l/value	/jointset/hip_l/hip_rotation_l/value	/jointset/back/lumbar_extension/value	/jointset/patellofemoral_l/patellar_flexion_l/value	/jointset/knee_l/knee_flexion_l/value	/jointset/knee_l/knee_adduction_l/value	/jointset/knee_l/knee_rotation_l/value	/jointset/ankle_l/ankle_angle_l/value	/jointset/subtalar_l/subtalar_angle_l/value	/jointset/ground_pelvis/pelvis_tilt/speed	/jointset/ground_pelvis/pelvis_tx/speed	/jointset/ground_pelvis/pelvis_ty/speed	/jointset/hip_l/hip_flexion_l/speed	/jointset/hip_l/hip_adduction_l/speed	/jointset/hip_l/hip_rotation_l/speed	/jointset/back/lumbar_extension/speed	/jointset/patellofemoral_l/patellar_flexion_l/speed	/jointset/knee_l/knee_flexion_l/speed	/jointset/knee_l/knee_adduction_l/speed	/jointset/knee_l/knee_rotation_l/speed	/jointset/ankle_l/ankle_angle_l/speed	/jointset/subtalar_l/subtalar_angle_l/speed	/forceset/tau_hip_flexion_l	/forceset/tau_hip_adduction_l	/forceset/tau_hip_rotation_l	/forceset/tau_knee_flexion_l	/forceset/tau_ankle_angle_l	/forceset/tau_subtalar_angle_l	/forceset/tau_lumbar_extension	lambda_cid13_p0	lambda_cid13_p1	lambda_cid13_p2	lambda_cid13_p3	lambda_cid13_p4	lambda_cid13_p5	lambda_cid14_p0	/jointset/ground_pelvis/pelvis_tilt/accel	/jointset/ground_pelvis/pelvis_tx/accel	/jointset/ground_pelvis/pelvis_ty/accel	/jointset/hip_l/hip_flexion_l/accel	/jointset/hip_l/hip_adduction_l/accel	/jointset/hip_l/hip_rotation_l/accel	/jointset/back/lumbar_extension/accel	/jointset/patellofemoral_l/patellar_flexion_l/accel	/jointset/knee_l/knee_flexion_l/accel	/jointset/knee_l/knee_adduction_l/accel	/jointset/knee_l/knee_rotation_l/accel	/jointset/ankle_l/ankle_angle_l/accel	/jointset/subtalar_l/subtalar_angle_l/accel	gamma_cid13_p0	gamma_cid13_p1	gamma_cid13_p2	gamma_cid13_p3	gamma_cid13_p4	gamma_cid13_p5	gamma_cid14_p0
1.5	0.09378659191004268	0.02600802813340372	0.905372426330645	0.3707692987586577	-0.2816740808149777	-0.2372761038355932	-0.7394508108900069	0.5226004406812184	0.5226004406809974	-0.06173570894054021	-0.1688557571973888	0.1148160584468393	0.0577564810994684	0.1488767024464533	0.145558022063893	0.2059801136474781	-1.190798680165699	0.1827431633652014	-0.5055743063819387	0.8470431551215019	-1.412801642944775	-1.412801642944544	0.04169899730043002	-0.03129384321263356	-0.4005334181633959	0.05433330949491888	-0.1197818666260187	0.05386418976254427	-0.007997547694911391	-0.1823524354960087	0.06202723956606936	0.006055743585917493	0.2251360921224232	-24.09275708492568	-0.4812131493333672	1.986473106434697	-2.296831326796215	-675.0525135104164	-52.15036191967975	-22.55671626407819	-0.0001186004922138189	0.3261328633173153	-0.4063292008368658	0.01865717418668002	0.2966609601257977	0.2576798278227266	1.042785471379373	0.163658933042943	0.1636589330429437	-0.1618139212137134	0.0565081735187506	0.3339337323839248	0.4068070019400017	8.818259199941273e-08	4.171849715228451e-07	-4.586716560272664e-07	3.993733028606529e-08	6.850573981868517e-08	3.316488025103902e-07	9.59419142173445e-08
1.51	0.09527517771485014	0.0274796982805879	0.9074116560897419	0.3588633208713455	-0.2798326717492676	-0.2423183050593799	-0.7309296941570914	0.508481949014456	0.5084819490143778	-0.06132825323996439	-0.1691662200468538	0.1108275482706766	0.05831918750840175	0.1488183161285117	0.1487526982226293	0.2018390681571265	-1.190249962688088	0.1854975732125492	-0.5028001281031325	0.8570403744029382	-1.410726094536465	-1.410726094536327	0.0397546854885852	-0.03079406637121718	-0.3971273188754497	0.05817447954386425	-0.1137170107370883	0.05177541080851613	-0.007988158890074763	-0.1816529032650415	0.06577035758189299	0.004946821093364045	0.2193456628063881	-22.85469712847635	-0.2366377735719811	1.970616160171704	-2.579064263592003	-673.1655783558366	-52.33109087960733	-22.77963873856086	-0.01201105161172328	0.3126443591008986	-0.4219837318875536	0.09502922318089764	0.258679621751586	0.2972570201081471	0.9572175976834315	0.2550722611525915	0.2550722611385995	-0.2163179551529531	0.04732067125112676	0.3501607677243415	0.3677337194612701	9.633624595667502e-08	4.344360554580582e-07	-4.71637245570406e-07	3.25183512028928e-08	1.024703340334288e-07	3.451946664990661e-07	9.833744706503325e-08
1.52	0.0967625171756427	0.02898261706274938	0.9094086770921848	0.3469672401965339	-0.2779649488601431	-0.2473307704619396	-0.7223127997431303	0.4943893267250581	0.4943893267251302	-0.06094135628629849	-0.1694715634815496	0.106874341635538	0.05891929796044233	0.148627433643912	0.1518077490593523	0.1975383623166381	-1.188819237665168	0.1880059280483961	-0.4996271421363854	0.8661986913306803	-1.407627767471053	-1.407627767471009	0.03758724791741654	-0.03026996025787862	-0.3934727099585277	0.06181411811638988	-0.1076521548481657	0.04968663185447703	-0.007978770085190465	-0.1809533710340798	0.06951347559771141	0.003837898600795521	0.213555233490351	-21.61678876194941	0.009008575744233136	1.953396006723471	-2.893402952320744	-671.2985618460581	-52.53511175359781	-22.97716921049959	-0.02661783382390437	0.29820779891471	-0.4382612708642172	0.1950586832484681	0.2474499578255848	0.3374413654108397	0.8750050006405217	0.3682146644631852	0.368214664463179	-0.2064390730784815	0.06137402790318406	0.3836356581791345	0.366500706656092	9.999047121435017e-08	4.403417577019459e-07	-4.718413582034257e-07	2.696136234975536e-08	1.262396645528384e-07	3.494054368329418e-07	9.820609806483272e-08
1.53	0.0982473525344255	0.03051534725217905	0.9113619481013415	0.3350897427144665	-0.276073373126649	-0.2523095702536221	-0.7136086212579539	0.4803326835895094	0.4803326835895551	-0.06057720479241031	-0.1697714922675678	0.1029588463352098	0.05955478407395831	0.1483186182639291	0.1547107235680246	0.1930930862746075	-1.186534369255373	0.1902651299435836	-0.4960698918197881	0.8744929477308906	-1.403532156854822	-1.403532156854883	0.03520719897160266	-0.02970985474145456	-0.3895898556894626	0.06524573162100472	-0.1016083260734954	0.0475830781130633	-0.007968913977647591	-0.1802669570318272	0.07307890293400092	0.00267458517088558	0.2078008571149154	-20.45494734914331	0.2922640015494786	1.929416051035089	-3.092889632723674	-669.633848736495	-52.70471637777312	-23.14939220346257	-0.03615895781439787	0.2822117816580708	-0.4510445364041523	0.2670933136812616	0.2085478147422835	0.374399486535966	0.7850272636040816	0.4555209013724525	0.4555209013567002	-0.2591261721517499	0.05413383832771747	0.3961021741109114	0.325870100266977	9.886405347871404e-08	4.341929918988007e-07	-4.584864016194429e-07	2.338273811603015e-08	1.391765273959559e-07	3.436976701585924e-07	9.538993710124986e-08
1.54	0.09972847062586128	0.03207628108765846	0.9132700895969714	0.3232394723952629	-0.2741605268723278	-0.2572508910177898	-0.7048258219479971	0.4663220538883524	0.4663220538883796	-0.06023792146134023	-0.1700656589934635	0.09908327795014038	0.06022346200810095	0.1478839801747947	0.1574484782692987	0.1885124596113007	-1.183373805092125	0.1922600322138547	-0.4921313366331213	0.8819228562868114	-1.398425080591817	-1.398425080591983	0.03261361535303237	-0.02911754823240207	-0.3854873269067678	0.06845248224173292	-0.09556449729883446	0.04547952437163878	-0.007959057870051009	-0.1795805430295812	0.07664433027028478	0.001511271740960268	0.2020464807394771	-19.29188054314529	0.576615468039514	1.903764820395388	-3.327496977586591	-667.9684035782623	-52.89285576503407	-23.2965969527673	-0.05178237565428148	0.2651638374351203	-0.4653313951194739	0.3701978339388284	0.1945900328422857	0.4137023394246974	0.7021354317825744	0.5705077938179166	0.5705077938179166	-0.2491460076297601	0.06781422642886618	0.427570560905177	0.3215281298788023	9.790304242498431e-08	4.309288774996279e-07	-4.455611207149493e-07	1.971283781212339e-08	1.546413039529102e-07	3.388829125267577e-07	9.278679563689792e-08
1.55	0.1012046833664512	0.03366373285113854	0.9151318001977544	0.3114250596756141	-0.2722290563823253	-0.2621509894539206	-0.6959732182984373	0.4523674666893031	0.4523674666893314	-0.05992558973214906	-0.1703537140557307	0.09524977920768682	0.06092307563650528	0.1473370702085689	0.1600106632254287	0.1838101896613009	-1.179358460276692	0.1939868560080872	-0.4878276595610963	0.8884447132008256	-1.392318456724472	-1.39231845672466	0.02982053139776771	-0.02848734730095341	-0.3811768728835342	0.07143038920471426	-0.08940035593893929	0.04324382476096016	-0.007950846746603809	-0.1791436261668772	0.08033881258505482	0.0002911653502956585	0.1962229076220182	-18.10552546503527	0.8871991073144958	1.867483512270081	-3.519605012469926	-666.4940055875638	-53.08479288903192	-23.41925739651686	-0.05936459007236018	0.2470669128349549	-0.4755587818580442	0.4397522025295313	0.1546470553595834	0.4478944453397851	0.6042367575076446	0.6568072334284613	0.6568072334250863	-0.2991788354817634	0.06145822353911298	0.4381328232565522	0.279925198617954	9.71326086351902e-08	4.309883831963363e-07	-4.331309009194326e-07	1.593777160126834e-08	1.730186767453718e-07	3.350970566178204e-07	9.042908968252942e-08
1.56	0.1026747831507851	0.03527587068180661	0.9169459113016537	0.2996553102835556	-0.2702817339538499	-0.2670062123084834	-0.6870599908924782	0.4384791592389697	0.438479159239008	-0.0596421466917095	-0.1706353000692811	0.09146045500551038	0.06165126897836146	0.1466613889237226	0.1623856917068943	0.1789925602345768	-1.174441139573899	0.1954304199081581	-0.4831562203191374	0.8940476075667111	-1.385169130847701	-1.385169130847913	0.0268358776022255	-0.02782373848805444	-0.3766524188513352	0.07416842493210316	-0.08323621457905399	0.04100812515027129	-0.007942635623099397	-0.1787067093041799	0.08403329489981931	-0.000928941040383903	0.1903993345045561	-16.91632550976361	1.199047834091634	1.828986955212909	-3.750310980765327	-664.994762022691	-53.28986250081127	-23.51803061810023	-0.0775366393784563	0.2277325425023039	-0.4884032904643655	0.5505930114106242	0.1379380540099519	0.4872547734114712	0.5183429221568125	0.7790481957028358	0.7790481957028349	-0.2874599756852647	0.0744958027189221	0.4703705626983709	0.2735538827603538	9.559570546776127e-08	4.302440591866967e-07	-4.181237202072495e-07	1.230142782560559e-08	1.912662887237304e-07	3.296951630132477e-07	8.762791695076998e-08
1.57	0.1041375557520122	0.03691078796606636	0.9187113268493456	0.2879390954284516	-0.2683213770228767	-0.2718129640187039	-0.6780954783091979	0.4246674280408097	0.4246674280407819	-0.0593894353280732	-0.1709100522996496	0.08771737108806037	0.06240564763014496	0.1458714091228985	0.164562780652176	0.1740749433412274	-1.16864954456739	0.1965913384855283	-0.4781357139124566	0.8986950892906336	-1.377002281686851	-1.37700228168711	0.0236774664915819	-0.02711979717990806	-0.3719319338018704	0.07666482860820803	-0.07702012188873297	0.03870804724564142	-0.007936791295960574	-0.1784581676435912	0.08775099772444268	-0.002210884094952249	0.184569012787233	-15.74265093034466	1.544487932429069	1.780545836869511	-3.907240992035815	-663.751621747187	-53.48212986208372	-23.59374022178672	-0.08298413731433169	0.2074507657720896	-0.4957378302396842	0.6162915050072076	0.09771767078289074	0.5182945297592887	0.4139778276497511	0.8617108728526136	0.8617108728454917	-0.3343286827592183	0.06930357438905776	0.4777693249760797	0.2312896661240994	9.310071557828883e-08	4.284949480441223e-07	-3.998953383492333e-07	8.838487093933215e-09	2.093516996844602e-07	3.222732222891306e-07	8.427241074727188e-08
1.58	0.1055917774578548	0.03856642687882519	0.9204271068398101	0.2762853662753593	-0.2663509011238909	-0.2765677414737669	-0.669089285502651	0.410942606853569	0.4109426068534834	-0.05916916747634323	-0.171177573061036	0.08402246839088613	0.06318371152990726	0.1449512098468806	0.1665300174067084	0.1690654487890863	-1.161943999171431	0.1974542135101957	-0.4727613692872606	0.902383652220147	-1.367787128662942	-1.367787128663249	0.02034717522072639	-0.0263774446906987	-0.3670161747961828	0.07890547452785601	-0.07080402919842188	0.03640796934100236	-0.007930946968766275	-0.1782096259830092	0.09146870054906084	-0.003492827149534184	0.1787386910699064	-14.56456059316985	1.891249592148243	1.729501743888087	-4.105968078324853	-662.4600858745579	-53.68173344511895	-23.64736578568059	-0.1035805344173046	0.1857621043525388	-0.5067788222226878	0.7333830893005445	0.0783293434693895	0.5580224171144849	0.3265591632749763	0.9887089683144032	0.9887089683144029	-0.3218360077276384	0.08217803893151343	0.509425353943035	0.2224023314690181	8.9801689289122e-08	4.248883534883204e-07	-3.788331080271805e-07	5.467038049600655e-09	2.266078216525373e-07	3.125886011773981e-07	8.040370655753313e-08
1.59	0.1070362242837408	0.04024068248915212	0.9220923937077379	0.2647030801857529	-0.2643732451480617	-0.2812670982428656	-0.6600510311873985	0.3973150459789045	0.3973150459788506	-0.05898293703177553	-0.1714374417335019	0.08037766927695089	0.06398295332191833	0.1439165664249317	0.168285313776582	0.1639806964616038	-1.15436323722273	0.1980261513517199	-0.4670541498511723	0.9051128699956437	-1.357550331066904	-1.357550331067173	0.01687526125799737	-0.0255880661396834	-0.3619106039674106	0.08090055925158107	-0.06465937325219197	0.03407653544177254	-0.007927589547460255	-0.1780791346126497	0.09514488326930107	-0.004799076925140766	0.1730331947802632	-13.42507024742699	2.257335650752025	1.673081202417443	-4.249614654640073	-661.5123473428143	-53.8893499245567	-23.6800289577819	-0.106644669734226	0.1650448281230761	-0.5109572178867245	0.7929233546431236	0.03898711152589313	0.5855234193557328	0.2229519594219284	1.067357812175478	1.067357812181026	-0.3633731281525894	0.07848357513370731	0.5160956950401093	0.1816865052369997	8.541147074322715e-08	4.187608885859956e-07	-3.539249405039354e-07	2.219756295229272e-09	2.427384799877284e-07	2.998331995396162e-07	7.583851938646781e-08
